<?xml version="1.0" encoding="UTF-8" standalone="no"?>
<!DOCTYPE svg PUBLIC "-//W3C//DTD SVG 1.1//EN" "http://www.w3.org/Graphics/SVG/1.1/DTD/svg11.dtd">
<svg width="100%" height="100%" viewBox="0 0 512 512" version="1.1" xmlns="http://www.w3.org/2000/svg" xmlns:xlink="http://www.w3.org/1999/xlink" xml:space="preserve" xmlns:serif="http://www.serif.com/" style="fill-rule:evenodd;clip-rule:evenodd;stroke-linejoin:round;stroke-miterlimit:2;">
    <g>
        <g>
            <path d="M405.333,213.874L405.333,106.667C405.333,83.136 386.198,64 362.666,64L42.666,64C19.135,64 0,83.135 0,106.667L0,320C0,343.531 19.135,362.667 42.667,362.667L281.882,362.667C295.858,411.84 341.073,448 394.667,448C415.292,448 435.573,442.573 453.344,432.292C458.438,429.344 460.188,422.823 457.229,417.719C454.281,412.615 447.75,410.854 442.656,413.834C428.135,422.23 411.541,426.667 394.666,426.667C341.728,426.667 298.666,383.604 298.666,330.667C298.666,277.73 341.729,234.667 394.666,234.667C447.603,234.667 490.666,277.73 490.666,330.667L490.666,341.334C490.666,353.094 481.093,362.667 469.333,362.667C457.573,362.667 448,353.094 448,341.334L448,298.667C448,292.771 443.229,288 437.333,288C434.464,288 431.886,289.161 429.971,291C420.543,282.599 408.257,277.333 394.666,277.333C365.26,277.333 341.333,301.26 341.333,330.666C341.333,360.072 365.26,384 394.667,384C410.563,384 424.697,376.869 434.477,365.798C442.204,376.775 454.917,384 469.334,384C492.865,384 512,364.865 512,341.333L512,330.666C512,269.569 465.044,219.288 405.333,213.874ZM42.667,85.333L362.667,85.333C363.111,85.333 363.483,85.56 363.921,85.587L211.438,210.75C206.011,214.167 198.146,213.458 194.615,211.292L41.426,85.585C41.859,85.559 42.227,85.333 42.667,85.333ZM384,213.874C324.289,219.288 277.333,269.569 277.333,330.667C277.333,334.267 277.554,337.815 277.873,341.334L42.667,341.334C30.907,341.334 21.334,331.761 21.334,320.001L21.334,106.667C21.334,103.646 22.001,100.793 23.139,98.187L182.022,228.48C188.23,232.532 195.366,234.668 202.668,234.668C209.689,234.668 216.553,232.689 222.595,228.939C223.199,228.616 223.772,228.231 224.314,227.783L382.194,98.185C383.333,100.793 384.001,103.646 384.001,106.668L384.001,213.874L384,213.874ZM394.667,362.667C377.021,362.667 362.667,348.313 362.667,330.667C362.667,313.021 377.021,298.667 394.667,298.667C412.313,298.667 426.667,313.021 426.667,330.667C426.667,348.313 412.313,362.667 394.667,362.667Z" style="fill:white;fill-rule:nonzero;"/>
        </g>
    </g>
</svg>
