<svg xmlns="http://www.w3.org/2000/svg" xmlns:xlink="http://www.w3.org/1999/xlink" id="Layer_1" x="0px" y="0px" viewBox="0 0 394.7 47.2" style="enable-background:new 0 0 394.7 47.2;" xml:space="preserve">
<style type="text/css">
	.st0{fill:#FFFFFF;}
</style>
<g>
	<g>
		<path class="st0" d="M2,2.9h41.8c4.8,0,8.5,0.3,11.2,1c2.7,0.7,5.4,1.9,8,3.7c5,3.5,7.5,7.4,7.5,11.7c0,4.5-2.6,8.3-7.8,11.1    c-5.2,2.9-11.9,4.3-20.1,4.3H2l11.7-7.4v-17L2,2.9z M30.1,28.4h7.8c5.5,0,9.1-0.6,11-1.8c1.8-1.2,2.7-3.6,2.7-7.3    C51.5,12.2,47,8.6,38,8.6h-8V28.4z"></path>
		<path class="st0" d="M96.1,11.2c5.7,0,10.7,1.3,15,3.9c4.3,2.6,6.5,5.6,6.5,9c0,3.2-2.2,6-6.5,8.3c-4.3,2.3-9.5,3.5-15.6,3.5    c-6.1,0-11.3-1.2-15.6-3.6c-4.3-2.4-6.5-5.3-6.5-8.7c0-3.4,2.2-6.3,6.6-8.7C84.5,12.4,89.9,11.2,96.1,11.2z M95.4,15.9    c-5,0-7.5,2.6-7.5,7.9c0,5,2.6,7.5,7.7,7.5c5,0,7.5-2.5,7.5-7.4C103.1,18.5,100.5,15.9,95.4,15.9z"></path>
		<path class="st0" d="M139.6,1.3v27.6l9,5.8h-31.3l9-5.8V7.7l-9-5.8L139.6,1.3z"></path>
		<path class="st0" d="M190.2,26.4c2.2,0.3,3.3,1.5,3.3,3.6c0,3.8-3.2,5.8-9.7,5.8c-5.4,0-8.5-1.6-9.3-4.9c-1.7,1.8-3.5,3.1-5.6,3.8    c-2,0.7-4.9,1.1-8.5,1.1c-7.9,0-11.9-1.9-11.9-5.6c0-4,3.6-6.5,10.9-7.5l2.8-0.4l11.2-1.6v-1.8c0-1.9-1.8-2.8-5.4-2.8    c-4.4,0-6.6,1-6.6,3c0,0.5,0.2,1,0.7,1.6c-2.2,0.6-4.9,0.9-7.9,0.9c-3.4,0-5.1-1-5.1-3.1c0-2.1,1.9-3.8,5.6-5.1    c3.7-1.3,8.5-2,14.4-2c6.2,0,10.7,0.6,13.4,1.8c2.7,1.2,4.1,3.2,4.1,5.9v8.6c0,2.2,0.6,3.4,1.8,3.4c1.3,0,1.9-0.9,1.9-2.7    C190.4,28,190.3,27.3,190.2,26.4z M173.5,24.5l-5.5,0.8l-1.6,0.2c-3,0.4-4.5,1.4-4.5,3.2c0,1.7,1.3,2.5,4,2.5c2.2,0,4-0.5,5.4-1.4    c1.4-0.9,2.2-2.1,2.2-3.4V24.5z"></path>
		<path class="st0" d="M212.1,1.3v15.1c2.7-3.3,6.1-5,10.1-5c4.5,0,8.4,1.3,11.6,3.8c3.3,2.5,4.9,5.5,4.9,9c0,3.3-1.7,6-5.2,8.3    c-3.5,2.2-7.8,3.4-12.9,3.4c-6.6,0-11.5-2.1-14.6-6.4l-6.1,5.3h-1.1v-27l-9-5.8L212.1,1.3z M219,16.7c-2,0-3.6,0.7-4.9,2.1    c-1.3,1.4-1.9,3.1-1.9,5.2c0,4.8,2.1,7.1,6.4,7.1c4.3,0,6.5-2.5,6.5-7.5C225,19,223,16.7,219,16.7z"></path>
		<path class="st0" d="M283.6,26.4c2.2,0.3,3.3,1.5,3.3,3.6c0,3.8-3.2,5.8-9.7,5.8c-5.4,0-8.5-1.6-9.3-4.9c-1.7,1.8-3.5,3.1-5.6,3.8    c-2,0.7-4.9,1.1-8.5,1.1c-7.9,0-11.9-1.9-11.9-5.6c0-4,3.6-6.5,10.9-7.5l2.8-0.4l11.2-1.6v-1.8c0-1.9-1.8-2.8-5.4-2.8    c-4.4,0-6.6,1-6.6,3c0,0.5,0.2,1,0.7,1.6c-2.2,0.6-4.9,0.9-7.9,0.9c-3.4,0-5.1-1-5.1-3.1c0-2.1,1.9-3.8,5.6-5.1    c3.7-1.3,8.5-2,14.4-2c6.2,0,10.7,0.6,13.4,1.8c2.7,1.2,4.1,3.2,4.1,5.9v8.6c0,2.2,0.6,3.4,1.8,3.4c1.3,0,1.9-0.9,1.9-2.7    C283.9,28,283.8,27.3,283.6,26.4z M266.9,24.5l-5.5,0.8l-1.6,0.2c-3,0.4-4.5,1.4-4.5,3.2c0,1.7,1.3,2.5,4,2.5c2.2,0,4-0.5,5.4-1.4    c1.4-0.9,2.2-2.1,2.2-3.4V24.5z"></path>
		<path class="st0" d="M286.4,12.5l21.7-0.5v6.1c1.7-2.5,3.5-4.3,5.3-5.2c1.8-0.9,4.4-1.4,7.6-1.4c8.5,0,12.8,2.8,12.8,8.4v9.1    l9,5.8H315l5.6-4.8v-7.7c0-3.1-1.7-4.7-5.2-4.7c-2,0-3.6,0.6-4.9,1.9c-1.2,1.2-1.9,2.9-1.9,4.9V30l5.6,4.8h-27.8l9-5.8V18.3    L286.4,12.5z"></path>
		<path class="st0" d="M394.1,11.9l-8.6,5.8l-11.3,20c-1.6,2.7-3.5,4.7-5.8,5.8c-2.3,1.1-5.4,1.7-9.4,1.7c-3.5,0-6.5-0.5-8.8-1.6    c-2.4-1.1-3.5-2.4-3.5-4.1c0-1.2,0.9-2.3,2.6-3.3c1.8-1,3.7-1.5,6-1.5c0.9,0,2.2,0.1,3.8,0.4c-0.5,1.2-0.7,2.2-0.7,2.8    c0,1.7,0.8,2.5,2.4,2.5c1.5,0,2.6-0.7,3.2-2l1.3-2.6l-17.2-18.3l-10.6-5.8h31.8l-5.8,5l7.8,9l5.2-8.7l-6.4-5.3H394.1z"></path>
		<path class="st0" d="M381.4,31c0.6,0,1.2,0.1,1.7,0.5c0.6,0.3,1,0.7,1.3,1.3c0.3,0.6,0.5,1.1,0.5,1.8c0,0.6-0.2,1.2-0.5,1.7    c-0.3,0.6-0.7,1-1.3,1.3c-0.6,0.3-1.1,0.5-1.7,0.5c-0.6,0-1.2-0.2-1.7-0.5c-0.5-0.3-1-0.7-1.3-1.3c-0.3-0.6-0.5-1.1-0.5-1.7    c0-0.6,0.2-1.2,0.5-1.8c0.3-0.6,0.7-1,1.3-1.3C380.2,31.1,380.8,31,381.4,31z M381.4,31.6c-0.5,0-1,0.1-1.4,0.4    c-0.5,0.3-0.8,0.6-1.1,1.1c-0.3,0.5-0.4,1-0.4,1.5c0,0.5,0.1,1,0.4,1.4c0.3,0.5,0.6,0.8,1.1,1.1c0.5,0.3,0.9,0.4,1.4,0.4    c0.5,0,1-0.1,1.4-0.4c0.5-0.3,0.8-0.6,1.1-1.1c0.3-0.5,0.4-0.9,0.4-1.4c0-0.5-0.1-1-0.4-1.5c-0.3-0.5-0.6-0.8-1.1-1.1    C382.3,31.7,381.9,31.6,381.4,31.6z M379.8,36.4v-3.8h1.3c0.4,0,0.8,0,1,0.1c0.2,0.1,0.4,0.2,0.5,0.4c0.1,0.2,0.2,0.4,0.2,0.5    c0,0.3-0.1,0.5-0.3,0.7c-0.2,0.2-0.5,0.3-0.8,0.3c0.1,0.1,0.2,0.1,0.3,0.2c0.1,0.1,0.3,0.4,0.6,0.7l0.5,0.7h-0.7l-0.3-0.6    c-0.3-0.5-0.5-0.8-0.6-0.9c-0.1-0.1-0.3-0.1-0.5-0.1h-0.4v1.6H379.8z M380.4,34.3h0.7c0.3,0,0.6-0.1,0.7-0.2    c0.1-0.1,0.2-0.2,0.2-0.4c0-0.1,0-0.2-0.1-0.3c-0.1-0.1-0.2-0.2-0.3-0.2c-0.1,0-0.3-0.1-0.6-0.1h-0.7V34.3z"></path>
	</g>
</g>
</svg>